<svg id="svg2" xmlns="http://www.w3.org/2000/svg" viewBox="0 0 947.76 531.16">
  <defs>
    <style>
      .cls-1 {
        fill: #fff;
        stroke: #000;
        stroke-miterlimit: 10;
        stroke-width: 0.5px;
      }

      .cls-1:hover {
        fill: #181818;
      }

    </style>
  </defs>
  <path id="kalimantan" class="cls-1"
    d="M780.46,321.8l-2.31,8.68-12.53,4.23-3.75-4.4-1.82.5,3.4,13.12,5.09.57,6.79,2.57v2.57l3.11-.57L783,342.8v-5.13l2.55-5.13,2.83.57L785,326l-.52-4.59-4,.41Z" />
  <path id="papua_new_guinea" data-name="papua new guinea" class="cls-1"
    d="M851.54,345.69l-.37,24.44,3.52-.19,4.63-5.41,3.89.19,2.5,2.24.83,6.9,8,4.2,2-.75v-2.52l-6.39-5.32L867,362.19l2.5-1.21-1.85-4-3.7-.09L863,352.6l-9.81-6.6-1.67-.28Z" />
  <path id="mexico" class="cls-1"
    d="M136.27,222.83,141.1,238l-2.25,1.26.25,3,4.25,3.27v6l5.25,5-2.25-14.86-3-9.83.75-6.8,2.5.25,1,2.27-1,5.79,13,25.44V268l10.5,12.34,11.5,5.29,4.75-2.77,6.75,5.54,4-4-1.75-4.54,5.75-1.76,1.75,1,1.75-1.76h2.75l5-8.82-2.5-2.27-9.75,2.27-2.25,6.55-5.75,1-6.75-2.77-3-9.57,2.27-12.07L180,248.77l-2.21-11.59-1.85-.79-3.38,3.43-3.88-2.07L167.14,230l-15.37-1.61-7.94-6-7.56.39Z" />
  <path id="estonia" class="cls-1" d="M516.55,141.06l-5.6-.2L507.4,143v1.61l2.3,2.17,7.1,1.22-.25-7Z" />
  <path id="algeria" class="cls-1"
    d="M472.66,224.89l-4.08-1.37-17,3.19-3.7,2.81,2.26,11.67-6.75.27-4,6.54-9.67,2.32v4.75l31.85,24.35,5.43.46,18.11-14.15-1.81-2.28-3.4-.46-2-3.42V245.41L476.49,244l.23-3.65-3.62-3.65-.45-3.88,1.58-1.14-.68-4.11-.89-2.72Z" />
  <path id="morocco" class="cls-1"
    d="M447.07,229.68H435.52l-2.26,5-5.21,2.51-4.3,11.64-8.38,5L403.6,273.26l11.55-.23.45-5.7h2.94v-7.76h10.19l.23-10,9.74-2.28,4.08-6.62,6.34-.23-2.05-10.72Z" />
  <path id="mauretania" class="cls-1"
    d="M403.68,274.06l2.18,2.85-.45,12.32,3.17-2.28,2.26-.46,3.17,1.14,3.62,5,3.4-2.28,16.53-.23-4.08-27.61h4.38l-8.16-6.25v4.06H419.38l-.05,7.75h-3l-.38,5.72-12.3.27Z" />
  <path id="senegal" class="cls-1"
    d="M408.9,287.72l-3.9,2.86-.9,1.6-.28,1.6,1.45,1,4.84-.07,3.11-.84.35,1.53-.28,2,3,1.46.62.7,3.94.14L421,298l-3.6-4.32-4-5.43-2.49-1-1.92.49Z" />
  <path id="gambia" class="cls-1" d="M405.67,295.74l-.13,1.11,6.92-.1.35-1-.15-1-2,.81-5,.25Z" />
  <path id="casamance" class="cls-1" d="M405.57,297.62l1.24,3,.69-1.86,8.41.88-3.64-1.87-6.7-.16Z" />
  <path id="bissau" class="cls-1" d="M407.38,301.93l1.4,2.77,3.93-3.38v-1l-4.63-.67-.74,2.32Z" />
  <path id="guinee" class="cls-1"
    d="M409.2,305.34l3,4.68,4-3.44,4.06-.18,3.38,4.49,2.87,1.89,1.08-2.1,1-.54-.07-4.62L426.57,300l-5.86.65-7.25-.58v1.86l-4.22,3.37Z" />
  <path id="sierra_leone" data-name="sierra leone" class="cls-1"
    d="M412.71,310.53l5.65,5.46,4-4.89-2.52-4-3.47.35-3.69,3Z" />
  <path id="liberia" class="cls-1" d="M419,316.59l11,7.34-.26-5.56-3.32-3.91-3.24-2.87-4.16,5Z" />
  <path id="ivoire" class="cls-1"
    d="M430.85,324.15l4.28-3,5.32-.93,5.43,1.17-2.77-4.19-.81-2.56.81-7.57-4.85.23-2.2-2.1-4.62.12-2.2.35.23,5.12-1.16.47-1.39,2.56L430.5,318l.35,6.17Z" />
  <path id="mali" class="cls-1"
    d="M418.24,293.24l3.08-2.11,17.12-.1-4-27.54,4.52-.13,21.87,16.69,2.94.42-1.11,9.28L449,291l-10.61,7.92-1.93,5.42-7.37.31-1.88-5.41-5.65.4.22-1.77-3.49-4.63Z" />
  <path id="burkina" class="cls-1"
    d="M449.37,291.68l3.64-.29,6,8.44L453.44,304l-4-1-5.39.07-.87,3.16-4.52.22-1.24-1.69,1.6-5.14,10.36-7.92Z" />
  <path id="niger" class="cls-1"
    d="M459.67,299.4l2.55-.06,2.3-3.45,3.86-.69,4.11,2.51,8.77.25L488,295.2l2.55-2.19.19-2.88,4.73-4.77,1.25-10.53-3.11-6.52-8-1.94-18.42,14.36-2.61-.25-1.12,10-9.4.94,5.53,8Z" />
  <path id="ghana" class="cls-1"
    d="M443.12,314.45l1.12,2.63,2.92,4.58,1.62-.06,4.42-2.51-.31-14.29-3.42-1-4.79.13-1.56,10.52Z" />
  <path id="togo" class="cls-1" d="M454,318.65l2.68-1.57-.06-10.35-1.74-2.82-1.12.94.24,13.8Z" />
  <path id="benin" class="cls-1"
    d="M457.49,316.89h2.12l.12-6,2.68-3.89-.12-6.77-2.43-.06-4.17,3.26,1.74,3.32.06,10.16Z" />
  <path id="nigeria" class="cls-1"
    d="M460.35,316.77l3.92.19,4.73,5.27,2.3.63,1.8-.88,2.74-.38.93-3.82,3.73-2.45,4-.19,7.4-13.61-.12-3.07-3.42-2.63-6.84,3-9.15-.13-4.32-2.7-3.11.69-1.62,2.82-.12,8-2.61,3.7-.24,5.65Z" />
  <path id="tunisia" class="cls-1"
    d="M473.69,224.73l5.53-2.23,1.82,1.18.07,1.44-.85,1.11.13,2,.85.46v3.54l-1,1.64.13,1,3.71,1.31-3,4.65-1.17-.07-.2,3.74-1.3.2-1.11-1,.26-3.8L474,236.4l-.46-3.08,1.76-1.38-1.56-7.21Z" />
  <path id="libya" class="cls-1"
    d="M478.83,245.43l1.56-.26.46-3.6h.78l3.19-5.24,7.87,2.29,2.15,3.34,7.74,3.54,4-1.7-.39-1.7-1.76-1.7.2-1.18,2.86-2.42h5.66l2.15,2.88,4.55.66.59,36.89-3.38-.13-20.42-10.62-2.21,1.25-8.39-2.1-2.28-3-3.32-.46-1.69-3,.05-13.72Z" />
  <path id="egypt" class="cls-1"
    d="M520.71,240.46l2.67.07,5.2,1.44,2.47.07,3.06-2.56h1.43l2.6,1.44H542l2.08,6,.59,1.93.55,2.89-1,.72-1.69-.85-2-6.36-1.76-.13-.13,2.16L539.9,251l9.37,11.6.2,5-2.73,3.15-25.64-.29-.39-29.94Z" />
  <path id="chad" class="cls-1"
    d="M491.57,293.4l.13-2.95,4.74-4.61,1.27-11.32-3.16-6,2.21-1.13,21.4,11.15-.16,10.9-3.77,3.21v5.64l2.47,4.78h-4.36l-7.22,7.14-.19,2.16-5.33-.07-.07,1-3-.4-2.09-3.9-1.56-.77.2-1.2,2-1.5v-7l-2.71-.42-3.27-2.43,2.51-2.21Z" />
  <path id="south_sudan" data-name="south sudan" class="cls-1"
    d="M547.86,307.74l-2.94-4.94-.31-3.6-.71.14-.19,1.11-3.85,5.63-3.08-1.47-3.07,2.58-6.35-.37-2.81-2.25-4,2.07L520.4,308l-1.23.74,12.32,12.68,6.71.38,1,1.49,9.6.17.08-2.15.82-1.49,3.2-.41-4-5.79H546l-.75-4.11,2.36-1Z" />
  <path id="sudan" class="cls-1"
    d="M550.78,268l-3.69,3.72-25.8-.23.28,6.57-2.46-.07-.18,11.83L515.2,293l-.15,4.94,2.69,5.31,3,1.74v.42l4-2.06,3.07,2.45,5.64.32,3.26-2.72,2.88,1.37,3.25-4.75.28-1.57,2.47-.47.39,4.47,2.48,4.16,6-12.92v-7.85l4.36-5.14Z" />
  <path id="cameroon" class="cls-1"
    d="M476.6,321.68l3.22,3-.23,4.58,17.66-.41,1.44-1.62-5.06-5.45-.75-2,3.22-6-2.19-4-1.84-1v-2l2.13-1.39.12-6.32-1.69-.19v3.32L485.18,316l-4.54.23-3.11,2.14-.93,3.32Z" />
  <path id="eritrea" class="cls-1" d="M555.49,292.1l-.25-5.89,4-4.62,1.07.82,2,6.52,9.36,7L570,298l-7-5.92Z" />
  <path id="djibouti" class="cls-1" d="M570.26,298.94l-.57,3.36,4-.06.06-4.94-1.45-.89-2,2.53Z" />
  <path id="ethiopia" class="cls-1"
    d="M548.27,309.16l7.28-16.2h7.23l6.41,5.57-.45,4.59h5l.51,2.76,8,4.81,5,.25-9.43,10.13-13,4h-3.21l-5.72-4.88-2.26-1-4.38-6.45h-2.89l-.34-3,2.23-.74Z" />
  <path id="somaliland" class="cls-1"
    d="M574.52,302.44l4.08,2.78,1.21-.06,10.13-3.48,1.15,3.71-.81,3.13-2.19,1.74-5.47-.35-7.83-4.81-.27-2.66Z" />
  <path id="soqotra" class="cls-1" d="M598.4,297.05l2.13,2.38,2.88-1.74,1-.35-1.32-1.28-2.53.75-2.2.24Z" />
  <path id="somalia" class="cls-1"
    d="M590.75,301.45l4.37-1.68,1.55.93-.17,3.88-4,11.48-21.81,23.36-2.53-1.74-.17-9.86,3.28-3.77,7-2.15,10.21-10.78,2.67-2.38.75-3.48-1.08-3.81Z" />
  <path id="centrafrique" class="cls-1"
    d="M494.44,321.45l4.66,5,1.84-2.38,2.93.12.63-2.32,2.88-1.8,6,4.12,3.45-3.42,13.39.59L517.8,308.54l1.67-1,.23-2.26L516.86,304h-4.14l-6.67,6.61-.23,2.72-5.29-.17-.17,1.16-3.45-.35-3.11,5.91.64,1.62Z" />
  <path id="sao_tome" data-name="sao tome" class="cls-1" d="M469.52,334.55l1.15-.58.86.7-.86,1.33-1-.41-.11-1Z" />
  <path id="principe" class="cls-1" d="M471.83,330.9l1.73-.29.58,1.1-.86.93-.86-.12-.59-1.62Z" />
  <path id="bioko" class="cls-1" d="M475.62,324.81l-.46,2,1.38.75,1.32-1-.46-2-1.78.3Z" />
  <path id="gabon" class="cls-1"
    d="M485.17,330l-.12,2.49-5.64-.12-3.41,6.7,8.11,8.87,2-1.68-.06-1.74-1.38-.64v-1.22l3.11-2,2.76,2.09,3,.06-.06-10.49-4.83-.23-.06-2.2-3.44.11Z" />
  <path id="equatorial_guinea" data-name="equatorial guinea" class="cls-1"
    d="M479.77,330.09l-.06,1.39,4.54.23-.06-1.57-4.42-.05Z" />
  <path id="congo" class="cls-1"
    d="M489.78,329.92l-.06,1.45,4.78.12.17,12.41-4.37-.12-2.53-2-2,1.1-.09.55,1,.49.29,2.55-2.7,2.32.58,1.22,3-2.32h1.44l.46,1.39,1.9.81,6.1-5.16-.12-3.77,1.27-3.07,3.91-2.9,1-9.81H501l-3.22,4.41-8.12.29Z" />
  <path id="cabinda" class="cls-1" d="M485.33,350.63l1.74,2.26,2.25-2.13-.66-2.21h-.56l-2.77,2.12Z" />
  <path id="drc" class="cls-1"
    d="M488.16,353.11l10.31-.18,2.09,3-.08,2.19.77.7h5.12l1.47-2.89h2.09l.85.86,2.87-.08.85,10.08,5,.16v.78l13.33,6,.62,1.17h2.79l-.31-4.22-5-2.42.31-3.2,2.17-5.08,5-.16L534,345.66l.08-6,6.74-10.54.08-1.48-1-.55v-2.86l-1.23-.11-1.24-1.58-20.35-.92-3.73,3.63-6.11-4-2.15,1.32-1.56,13.13-3.86,3-1.16,2.64.21,3.91-7,5.69-1.85-.84.25,1.09-2.06,2Z" />
  <path id="rwanda" class="cls-1" d="M536.6,337.3l2.81,2.59-.12,2.77-4.36.09v-3.06l1.67-2.39Z" />
  <path id="burundi" class="cls-1" d="M535,343.61l4.27-.09-1.11,3.74-1.08.94h-1.32l-.94-2.53Z" />
  <path id="uganda" class="cls-1"
    d="M537.08,336.49l3,2.84,1.9-1.21,5.14-.84.88.09.33-1.95,2.9-6.1-2.44-5.08-7.91.05v2.09l1.06,1-.16,2.09-4.68,7Z" />
  <path id="kenya" class="cls-1"
    d="M549.61,323.92l2.66,5.19-3.19,6.69-.42,2,15.93,9.85,4.94-7.76-2.5-2V327.67l3.13-3.42-5,1.66h-3.77l-5.9-5-1.86-.8-3.45.32-.61,1,.08,2.4Z" />
  <path id="tanzania" class="cls-1"
    d="M549.35,368.82l17.47-2.14-3.93-7.6-.21-7.28,1.27-3.48-16.62-10.44-5.21.86-1.81,1.34-.16,3.05L539,347.36l-1.22,1.45L536,349l3.35,11.61,5.47,2.57,3.77.11.75,5.56Z" />
  <path id="zambia" class="cls-1"
    d="M513.33,382.1l3.17,4.4,4.91.3,1.74,1,5.14.06,4.43-6.21,12.38-5.54,1.08-4.88-1.44-7-6.46-3.68-4.31.3-2.15,4.76.06,2.17,5.08,2.47.3,5.37-4.37.24L531.81,374l-12.14-5.18-.36,4-5.74.18Z" />
  <path id="angola" class="cls-1"
    d="M487.4,354.11l3.41,12.73-.08,4-5,5.36-.75,8.71,19.2.17,6.24,2.26,5.15-.67-3-3.76V372.19l5.9-.25v-4.19l-4.79-.2-1-9.92h-2l-1.09-1-1.19.06-1.58,3.06h-6.08l-1.41-1.42.42-2-1.66-2.43-10.73.17Z" />
  <path id="malawi" class="cls-1"
    d="M545.94,376.8l3.11,3.25-.06,4.16.6,1.75,4.13-4.46-.48-5.67L551,374.14l-2-9.95-3.41-.12,1.55,7.17-1.26,5.56Z" />
  <path id="mozambique" class="cls-1"
    d="M540,410.68l2.69,2.23,6.34-3.86,1-5.73v-9.46l10.17-8.32,1.74.06,6.16-5.91-1-12.18-16.33,2.06.48,3.68,2.81,2.17.66,6.63-5.5,5.37-1.32-3,.24-4L545,377l-7.78,3.62,7.24,3.68L544.7,395l-4.79,7.11.06,8.55Z" />
  <path id="zimbabwe" class="cls-1"
    d="M523.44,389.7l9,10.13,6.88,1.75,4.61-7.23-.36-9.58-7.48-3.86-2.81,1.27-4.19,6.39-5.8-.06.18,1.19Z" />
  <path id="namibia" class="cls-1"
    d="M495.33,419.36l3.35.24,2,2,4.67.06,1.14-13.26v-8.68l3-.6,1.14-9.1,7.6-.24,2.69-2.23-4.55-.18-6.16.84-6.64-2.41h-18.7l.48,5.3,6.22,9.16-1.08,4.7.06,2.47,4.78,11.94Z" />
  <path id="botswana" class="cls-1"
    d="M507.29,408.63l2.15.66-.3,6.15,2.21.3,5.08-4.58,6.1.66,1.62-4.1,7.72-7.05L522.6,390l-.12-1.75-1-.3-2.81,2.59-7.3.18-1,9.1-2.87.66-.17,8.15Z" />
  <path id="swaziland" class="cls-1" d="M539.65,411.4l-2.51.42-1.08,2.95,1.92,1.75h2.33l2-2.83-2.63-2.29Z" />
  <path id="lesotho" class="cls-1"
    d="M526.19,422.79l3-2.35,1.44.06,1.74,2.17-.18,2.17-2.93,1.08v.84l-3.23-.18-.78-2.35.89-1.44Z" />
  <path id="south_africa" data-name="south africa" class="cls-1"
    d="M532.94,401l-7.9,7.3-1.88,4.51L516.9,412l-5.21,4.63-3.46-.34.28-6.4-1.23-.43-.86,13.09-6.14-.06-1.85-2.18h-2.71l2.47,7.09,4.41,4.17-3.15,3.67,2,4.6,4.72,1.8,3.76-3.2,10.77.06.77-1,4.78-.84,16.17-16.1-.06-5.07-1.73,2.24H538l-3.15-2.64,1.6-4,2.75-.56-.25-8.18Zm-3.79,18.5,1.51-.06,2.45,2.66-.07,3.08-2.87,1.45-.18,1-4.38.05-1.37-3.3,1.25-2.42,3.66-2.48Z" />
  <path id="greenland" class="cls-1"
    d="M319.91,47.47l-1.36,2.17L321,52.09l-1.09,2.45,3.54,4.62,4.35-1.36,5.71-.54L340,64.33,344.39,76l-3.53,7.34,4.89-.82,2.72,1.63.27,3.54-6,.27L346,91.24l4.08.82-9,12-1.08,7.3,1.9,6-1.36,3.54,2.45,7.61,4.62,5.17,1.36-.27,3-.82.27,4.35,1.9,2.72,3.53-.27,2.72-10.06,8.16-10.06,12.24-4.89,7.61-9.52,3.53,1.63h7.34l6-6,7.34-3,.82-4.62-4.62-4.08-4.08-1.36-2.18-5.71,5.17-3,8.16,4.35,2.72-3-4.35-2.45,9.25-12.51-1.63-5.44-4.35-.27,1.63-4.89,5.44-2.45,11.15-9.79-3.26-3.53L420,39.86l-6.53,6.53L417.26,38l-4.35-1.09-2.45,4.35-3.53-3-9.79,1.09L399.86,35l16-.54-4-5.46-17.4-3.26-7.07,1.09.27,3.54-7.34-2.45.27-2.45-5.17,1.09-1.09,2.72,5.44,1.9L374,35.25l-4.08-4.62L364.23,29l-.82,4.35H357.7l-2.18-4.62-9-1.36-4.89,2.45-.27,3.26-6.25-.82-3.81,1.63.27,3.81v1.9l-7,1.4-3.26-2.17-2.18,3.53,3.26,3.54,6.8-.82.54,2.18-5.17,2.45-4.61-2.2Z" />
  <path id="disko" class="cls-1" d="M341.67,89.89l1.63,2.45-.82,3h-1.63l-2.18-2.45.54-1.9,2.46-1.09Z" />
  <path id="milne" class="cls-1" d="M409.65,83.09l4.62,1.36L414,88.26l-4.89-2.45L408,84.45l1.63-1.36Z" />
  <path id="australia" class="cls-1"
    d="M760,425.38l-.35,25.38-3.9,2.86-.35,2.5,5.32,3.57,13.13-2.5h6.74l2.48-3.58,14.9-2.86L808.56,454l-.71,4.29,1.42,4.29,8.16-1.43.35,2.14-5.32,3.93,1.77,1.43,3.9-1.43L817.07,479l7.45,5.72,4.26-1.43,2.13,2.14,12.42-1.79,11.67-19,4.26-1.07,8.51-15.73,2.13-13.58-5.32-6.79,2.13-1.43-4.26-13.23-4.61-3.22.71-17.87-4.26-3.22-1.06-10H851.1L844,402.12l-3.9.36-8.87-8.94,5-13.23L827,378.52l-10.29,2.86-2.84,8.22-4.61,1.07-.35-5.72-18.8,11.44.35,4.29-2.84,3.93h-7.1L765.28,411Z" />
  <path id="tasmania" class="cls-1" d="M824.52,493.66l-1.77,7.15.35,5,5.32-.36,6-9.29-9.93-2.5Z" />
  <path id="new_zealand_north_island" data-name="new zealand north island" class="cls-1"
    d="M911.8,479.36l1.06,11.8-1.42,5.36-5.32,3.93.35,4.65v5l1.42,1.79,14.55-12.51v-2.86h-3.55l-5-16.8-2.12-.36Z" />
  <path id="new_zealand_south_island" data-name="new zealand south island" class="cls-1"
    d="M901.16,505.1l2.84,5.36L896.19,518l-.71,3.93-5.32.71-8.87,8.22-8.16-3.93-.71-2.86,14.9-6.43,13.84-12.51Z" />
  <path id="new_caledonia" data-name="new caledonia" class="cls-1"
    d="M905.42,417.87l-.35,1.79,4.61,6.43,2.48,1.07.35-2.5-7.09-6.79Z" />
  <path id="sumatra" class="cls-1"
    d="M721.26,315l-.28,2.28,6.79,11.41h2l14.15,23.67,5.66.57,2.83-8.27-4.53-2.85-.85-4.56Z" />
  <path id="east_malaysia" data-name="east malaysia" class="cls-1"
    d="M762.92,330.32l3,3.49,11.58-4,2.29-8.84,5.16-.37,4.72-3.42-6.12-4.46-1.4-2.45-3,5.57,1.11,3.2-1.84,2.67-3.47-.89L766.54,327l.22,3.57-3.84-.23Z" />
  <path id="brunei" class="cls-1" d="M778.55,316.65l-2.88,3.49,2.36.74,1.33-1.86Z" />
  <path id="sulawesi" class="cls-1"
    d="M788.31,346.51l2.26,2.77-1.47,4.16v.79h3.34l1.18-10.4,1.08.3,2,9.5,1.87.5,1.77-4.06-1.77-6.14-1.47-2.67,4.62-3.37-1.08-1.49-4.42,2.87H795l-2.16-3.17.69-1.39,3.64-1.78,5.5,1.68,1.67-.1,4.13-3.86L806.8,329,803,332h-2.46l-3.73-1.78-2.65.1-3,4.75-1.87,8.22-1,3.28Z" />
  <path id="maluku" class="cls-1" d="M813,327.9l-1.87,4.55,3,3.86h1l1.28-2.57.69-.89-1.28-1.39-1.87-.69Z" />
  <path id="seram" class="cls-1"
    d="M818.77,342.85l-4,.89L813.56,345l1,1.68,2.65-1,1.67-1,2.46,2,1.08-.89-2-2.38-1.67-.59Z" />
  <path id="java" class="cls-1"
    d="M752,355.72l-2.75,1.88.59,1.58,8.75,2L763,362l1.87,2,5,.4,2.36,2,2.16-.5,2-1.78-3.64-1.68-3.14-2.67-8.16-2-9.44-2Z" />
  <path id="bali" class="cls-1" d="M780.55,364.33l-2.16,1.19,1.28,1.39,3.14-1.19-2.26-1.39Z" />
  <path id="lombok" class="cls-1" d="M784.28,363.44l.39,1.88,2.26.59.88-1.09-1-1.49-2.55.11Z" />
  <path id="sumba" class="cls-1" d="M789.69,368.39l-2.75.4,2.46,2.08h2l-1.67-2.48Z" />
  <path id="flores" class="cls-1" d="M790.47,365.12l-.59,1.19,4.42.69,3.44-2-2-.59-3.14.89-1.18-1-1,.79Z" />
  <path id="timor" class="cls-1" d="M804.92,365.82l-5.11,4.26.49,1.09,2.16-.4,2.55-2.38,5-.69-1-1.7-4.12-.2Z" />
  <path id="new_ireland" data-name="new ireland" class="cls-1"
    d="M879.26,346.4l-.88,1.25,4.81,4.26.66,2.5,1.31-.15.15-2.57-1.46-1.32-4.59-4Z" />
  <path id="new_britain" data-name="new britain" class="cls-1"
    d="M881.67,352.43l-.95.22-.58,2.57-1.82,1.18-5.47,1,.22,2.06,5.76-.29,3.65-2.28-.22-4-.59-.45Z" />
  <path id="bougainville" class="cls-1" d="M888.16,356.91l1.24,3.45,2.19,2.13.66-.59-.22-2.28-2.48-3-1.39.3Z" />
  <path id="choiseul" class="cls-1" d="M894.21,362.05l.15,2.28,1.39,1.32,1.31-.81-1.17-2.43-1.68-.36Z" />
  <path id="new_georgia" data-name="new georgia" class="cls-1" d="M896,367.71,894.79,369l1.24,2.28,1.46.44-.07-1.54Z" />
  <path id="santa_isabel" data-name="santa isabel" class="cls-1"
    d="M898.81,366.39l1,2.5,2,2.35,1.09-1.76-1.46-2.5-2.62-.59Z" />
  <path id="malaita" class="cls-1" d="M903.92,370.14l.58,3.09,1.39,1.91,1.17-2.42Z" />
  <path id="santa_ana" data-name="santa ana" class="cls-1" d="M905.52,377.05l-.51.88,1.68,2.21,1.17.07-.73-2.87Z" />
  <path id="rennell" class="cls-1" d="M901.8,381.45l-1.75.81,1.53,2.13,1.31-.74Z" />
  <path id="espiritu_santo" data-name="espiritu santo" class="cls-1"
    d="M919.65,394.62l-1.24,1.66.52,1.87.62.42,1.13-1.46-1-2.49Z" />
  <path id="malakula" class="cls-1" d="M920.27,399.71l.1,1.35,1.34.42.93-.52-.93-1.46-1.44.21Z" />
  <path id="efate" class="cls-1" d="M922.23,411.77l-.62.94.93,1,1.55-.52-1.86-1.46Z" />
  <path id="fiji" class="cls-1" d="M947.4,409.69l-1.24,1.66-.1,1.87,1.44,1.46-.1-5Z" />
  <path id="palawan" class="cls-1" d="M788.15,294.93l-.86,1.64-.48,2L782,304.66l.29,1.25,2-.29,6.21-6.94-2.39-3.75Z" />
  <path id="negros" class="cls-1"
    d="M795.89,292.62l-.1,5,1.82,1.83.67,3.56,1.82.39.86-2.22-1.43-1.06-.38-6.26-3.26-1.25Z" />
  <path id="cebu" class="cls-1" d="M801.06,294.55,801,299l1,1.73,1.82-2.12-.48-3.85-2.29-.19Z" />
  <path id="samar" class="cls-1" d="M802.2,290.69l1.8,2.41.86,2.31h1.63l-.29-4-1.82-1.25-2.2.48Z" />
  <path id="path7462" class="cls-1"
    d="M805.74,299.75l.38,2.89-3.35,2.7-2.77.29-3,3.18.1,1.45,2.77-.87,1.91-1.25,1.63,4.14,2.87,2,1.15-.39,1-1.25-2.29-2.31,1.34-1.06,1.53,1.25,1-1.73-1-2.12-.19-4.72-3.17-2.22Z" />
  <path id="luzon" class="cls-1"
    d="M790.16,270.37l-2.58,1.83-.29,5.78,4,7.8,1.34,1.06,1.72-1.16,3,.48.57,2.6,2.2.19,1-1.44-1.34-1.83-1.63-1.54-3.44-.38-1.82-3,2.1-3.18.19-2.79-1.43-3.56-3.62-.87Z" />
  <path id="mindoro" class="cls-1" d="M791.5,287.61l.76,2.7,1.34.87,1-1.25-1.6-2.12-1.53-.2Z" />
  <path id="hainan" class="cls-1" d="M758.61,267.57l-2.39.67-1.72,2.12,1.43,2.79,2.1.19,2.39-2.12.57-2.79-2.38-.86Z" />
  <path id="taiwan" class="cls-1" d="M786.24,245.71l-3.54,2.7-.19,5.2,3.06,3.56.76-.67Z" />
  <path id="kyushu" class="cls-1"
    d="M808.18,214.24l-1.63,1.64.67,2.31,1.43.1,1,5,1.15,1.25,2-1.83.86-3.28-2.48-3.55Z" />
  <path id="shikoku" class="cls-1" d="M817,211l-2.77,2.6-.1,3,.67.87,3.73-3.18-.29-3.18L817,211Z" />
  <path id="honshu" class="cls-1"
    d="M813.18,204.8l-4.9,5.62.86,1.35,2.39.29,4.49-3.47,3.16-.58,2.87,3.37,2.2-.77.86-3.28,4.1-.1,4-4.82-2.09-8-1-4.24,2.09-1.73-4.78-7.22-1.24.1-2.58,2.89v2.41l1.15,1.35.38,6.36-3,3.66-1.71-1.06-1.35,3-.28,2.79,1,1.64-.67,1.25-2.2-1.83h-1.54l-1.34.77-1,.29Z" />
  <path id="hokkaido" class="cls-1"
    d="M821.39,161.26l-1.53,1.35.77,2.89,1.34,1.35-.1,4.43-1.72.67-1.34,3,3.92,5.39,2.58-.87.48-1.35-2.77-2.5,1.72-2.22,1.82.29,1.43,1.54.1-3.18,3.92-3.18,2.2-.58-1.82-3.08-.86-1.35-1.43,1-1.24,1.54-2.68-.58L823.41,164l-2-2.68Z" />
  <path id="iturup" class="cls-1" d="M835.82,158.27,833.18,162l.19,1.83,1.34-.58,3.15-4-2-1.06Z" />
  <path id="urup" class="cls-1" d="M839.36,152.78l-1,2.6.1,1.73,1.63-1.06,1.53-3.08v-1.15l-2.3,1Z" />
  <path id="paramushir" class="cls-1" d="M838.82,129.43,837.58,131l.1,2.41,1.15-.1,1.91-3.37-1.92-.48Z" />
  <path id="onekotan" class="cls-1" d="M842.71,135.73V140l1.34.48,1-1.54v-3.27l-2.3.09Z" />
  <path id="sakhalin" class="cls-1"
    d="M803.6,120.42l-.09,6.17,7.74,12L814,149l4.88,9.25,1.91.67,1.63-1.35.76-2.22-7-7.61.19-3.95,1.53-.67.38-2.31-13.65-19.38Z" />
  <path id="bering_island" data-name="bering island" class="cls-1"
    d="M851.35,100.82l-1.91.19,1.15,1.64,2.39,1.64.67-.77-2.3-2.7Z" />
  <path id="medny" class="cls-1" d="M855.07,102l.29,1.64,3,.87.29-1.16Z" />
  <path id="attu" class="cls-1" d="M871.32,108.27l1.25,2.24,2.08-.14.42-1.54Z" />
  <path id="amchitka" class="cls-1" d="M892.29,111.77l1.67,3.08,1.25-1.4v-2.1Z" />
  <path id="adak" class="cls-1" d="M906.59,102l-2.36,3.08.55,1.4,2.92-1.82.28-1.82Z" />
  <path id="umnak" class="cls-1" d="M918.39,92.32l-2.08,2.52,2.22.84-.14-3.36Z" />
  <path id="unalaska" class="cls-1" d="M921.31,88.12l-1.39,2.24.14,2.24,1.94-.84Z" />
  <path id="st._lawrence_island" data-name="st. lawrence island" class="cls-1"
    d="M880.07,35.79l-2.36,1.54-.56,2,1.11,1.26,2.5-.84,2.5.84,1.39.42-.14-4.62-4.44-.56Z" />
  <path id="st._lawrence_island_west" data-name="st. lawrence island west" class="cls-1"
    d="M68,50.75l3.46,6.47,2.22-.5V54.48Z" />
  <path id="wrangel-w" class="cls-1" d="M77.27.72,73.38,4.25l1.17,2.61,2.08-1.44L77.8,6.73,81.68,5.3l-.13-2.22Z" />
  <path id="unalaska_west" data-name="unalaska west" class="cls-1" d="M48.44,107.66l-.17,3,2.16-.5v-1.34l-2-1.17Z" />
  <path id="umnak_west" data-name="umnak west" class="cls-1" d="M45.12,109l-4.32,2.18.67,2.34,1.66-1.34,3.32-1.51Z" />
  <path id="another_aleutian_west" data-name="another aleutian west" class="cls-1"
    d="M27.17,111.84l-3-.67-.5,1.34L24,115l3.16-3.18Z" />
  <path id="adak_west" data-name="adak west" class="cls-1" d="M20.85,111.68,18,110.51l-1,1.84,1.83,1.84,2-2.51Z" />
  <path id="amchitka_west" data-name="amchitka west" class="cls-1" d="M11.05,109l-1.33-1.84-1.33.5v2.51l1.5,1Z" />
  <path id="attu_west" data-name="attu west" class="cls-1" d="M.25,97.11l1.66,1.17-.5,1.34H.25Z" />
  <path id="kerguelen" class="cls-1" d="M621.54,497l-.15,4.29,5.94,1.38,1.37-3.53-2.13.61-2.74.61-.76-3.22-1.53-.14Z" />
  <path id="mauritius" class="cls-1" d="M611.79,396.39l-1.52,2,.3,2.15,3.2-2.61-2-1.53Z" />
  <path id="reunion" class="cls-1" d="M606.16,399.77l-2.28.15-.15,2,1.52.31,2.28-1.07-1.37-1.38Z" />
  <path id="madagascar" class="cls-1"
    d="M591.08,370.32,589,375.38l-3.65,6.44-6.39.46-2.74,3.22.46,9.82-4,4.6.46,7.82,3.35,3.83,4-.46,4-2.92-.91-4.6,9.13-15.8-1.83-2,1.83-3.83,2,.61.61-1.53-1.83-7.82L592.31,370l-1.23.31Z" />
  <path id="grande_comore" data-name="grande comore" class="cls-1" d="M576.47,368.63l.46,1.53,2,.31.76-2-3.2.15Z" />
  <path id="mayotte" class="cls-1" d="M579.36,371.7l.76,1.69h1.22l.61-2.15-2.59.46Z" />
  <path id="aldabra" class="cls-1" d="M601.13,355.74l-.61,1.23,1.67,1.38,1.22-1.38-2.28-1.23Z" />
  <path id="praslin" class="cls-1" d="M609.66,346.54l-1.83,1.23,1.37,2.15H611l-1.37-3.38Z" />
  <path id="mahe" class="cls-1" d="M610.42,351.91l-1.22,1.38.91,1.38,1.67.31.15-2.92Z" />
  <path id="male" class="cls-1" d="M655.18,318.16l.3,2.61,1.67.61.3-2.3-2.27-.92Z" />
  <path id="maldive" class="cls-1" d="M657.31,323.68l-.15,3.22,1.22.61,1.07-2.15-2.14-1.68Z" />
  <path id="gan" class="cls-1" d="M657.62,330l-1.07,1,1.22,1.07,1.52-1.07Z" />
  <path id="path151" class="cls-1" d="M371.42,214.42l-1.36,1.37,2.44,1.37.27-1.91-1.35-.83Z" />
  <path id="terceira" class="cls-1" d="M378.75,213.6l-1.63,1.09,1.36,1.09,2.17-.55-1.9-1.63Z" />
  <path id="pico" class="cls-1" d="M379.83,217.43l-.81,2.19L380.1,221l1.36-1.09-1.63-2.47Z" />
  <path id="sao_miguel" data-name="sao miguel" class="cls-1" d="M386.34,221.8l-.54,1.37.81.82,2.17-1.37Z" />
  <path id="madeira" class="cls-1" d="M407,233.82l-1.08,1.37,1.08,1.37,1.63-.82Z" />
  <path id="lanzarote" class="cls-1" d="M414.4,251.13l-1.75,1,.81.82.94-1.83Z" />
  <path id="gran_canaria" data-name="gran canaria" class="cls-1"
    d="M408.32,251.32l-2.17.55,1.08,1.64h1.63l-.54-2.19Z" />
  <path id="tenerife" class="cls-1" d="M403.16,249.68l-1.36,1.37,1.9,1.64,1.08-2.46-1.62-.55Z" />
  <path id="santo_antao" data-name="santo antao" class="cls-1" d="M386.34,287.94l-1.9,1.09,1.36,1.09,1.63-.82Z" />
  <path id="boa_vista" data-name="boa vista" class="cls-1" d="M391,290.14l-1.24,1.1.88,1.63,2.12-.95Z" />
  <path id="santiago" class="cls-1" d="M388.3,293.23l-1.59.95,1.71,2.29,1.35-.71-1.47-2.53Z" />
  <path id="kauai" class="cls-1" d="M8.78,246.1l-.14,2.33,2,1.37,1.22-1.09Z" />
  <path id="oahu" class="cls-1" d="M14.07,249.53l-1.9,1.37,1.63,2,1.9-1.64-1.63-1.78Z" />
  <path id="kahului" class="cls-1" d="M17.88,252.81,16.25,255l.54,1.37,2.31-1.09Z" />
  <path id="hawaii" class="cls-1" d="M20.59,257.05l-.95,5.47.95,2.05,3.12-1,1.63-2.74-3.4-3.15L20.59,257Z" />
  <path id="raiatea" class="cls-1" d="M26,400.08l-1.9-.14-.1,1.78,1.49,1,1.77-1.09Z" />
  <path id="tahiti" class="cls-1" d="M32.55,402l-2.72,1.78,2,2.46,1.77-.41,1-1.23-2-2.6Z" />
  <path id="guadeloupe" class="cls-1" d="M275.38,280.77l-1.5.62.53,1.33,1.76-1.15-.35-.36Z" />
  <path id="dominica" class="cls-1" d="M277.85,282.28l-.88,1.87,1.06,1.42,1.32-1.15Z" />
  <path id="martinique" class="cls-1" d="M280.85,287.43l-1.06,1,.79,1.6,1.5-.44-1.23-2.14Z" />
  <path id="st._lucia" data-name="st. lucia" class="cls-1" d="M280.76,291.43l-.71,1.51,1.15,1.24,1.5-.8Z" />
  <path id="st._vincent" data-name="st. vincent" class="cls-1" d="M280.85,295.25l-1.23.89,1,1.78,1.59-.89-1.33-1.78Z" />
  <path id="grenada" class="cls-1" d="M279.35,298.71l-1.15,1.15.44.71h1.41l.44-1.16-1.14-.7Z" />
  <path id="trinidad" class="cls-1" d="M281,302.18l-1.06,1-1.15.18v1.42l2.12,2,.88-1.42.53-1.6-.18-1.33L281,302.2Z" />
  <path id="puerto_rico" data-name="puerto rico" class="cls-1"
    d="M269.83,278.46l-2.64-.89-2.12,1.33,1.06,1.24,3.61.53.09-2.21Z" />
  <path id="haiti-dominican_border" data-name="haiti-dominican border" class="cls-1"
    d="M249.65,272.78,248,274.49l1.91.78.28,2.39L246,278l.43,2.3,1.23.09.71-1.06,4.94.16.89,1.71,1.14-1.34,3.33-.9,2.93.62.34-1.77-5.28-3.45-3.42-1.28-3.53-.33Z" />
  <path id="domincan_republic" data-name="domincan republic" class="cls-1"
    d="M261.89,277.84l-5.29-3.46-2.5-.85-.84,6,.88,1.69,1.15-1.33,3.35-.89,2.91.62Z" />
  <path id="haiti" class="cls-1"
    d="M249.64,272.78l3.44.36-.41,4.22-.34,2.22-4-.22-.71,1.07-1.23-.09L246,278l4.23-.35-.26-2.4-1.94-.8,1.67-1.7Z" />
  <path id="falklands_west" data-name="falklands west" class="cls-1" d="M306.73,505.58l-2.63-.29-2.62,1.76,1.9,2.06Z" />
  <path id="falklands_east" data-name="falklands east" class="cls-1"
    d="M309.35,504.26l-.87,2.79-2.48,2.2.15.73,4.23-1.62,1.75-2.2-2.78-1.9Z" />
  <path id="iceland" class="cls-1"
    d="M405.14,114.71l-2-1.11-2.64,1.67-2.27,2.1.06,1.17,2.94.37-.18,2.1-1,1,.25.68,2.94.19v3.4l4.23.74,2.51,1.42,2.82.12,4.84-2.41,3.74-4.94.06-3.34L419.17,116l-1.9-1.61-.86.62-1.29,1.67-1.47-.19-1.47-1.61-1.9.18-2.76,2.29-1.66,1.79-.92-.8-.06-2,.92-.62-.66-1Z" />
  <path id="spitsbergen" class="cls-1"
    d="M487,51.36l-1.65-1.66-3.66,1.78H475l-1,3.92,3.77,3.33,1.65-.24,2.36-4,2,1.43-1.42,2.85-.71,4.16,1.65,2.61,3.54-5.94,4.6-5.59-1.77-1.54Z" />
  <path id="nordaustlandet" class="cls-1"
    d="M489,44.23,486,47l1.77,2.73H491l1.3,1.78,3.89,2,4.48-2.61,3.07-2.61-1.06-2.14-3.07-1.78-2.24,2-1.53-1.9-1.18.12-1.53,3.33-2.24-2.26-.24-1.54-1.65.11Z" />
  <path id="edgeoya" class="cls-1"
    d="M495.76,56.47l-2.36,2.14-2,1.54.94,1.66,1.89.59L497.3,61l1.42-1.78-1.3-2.14-1.66-.58Z" />
  <path id="prince_george" data-name="prince george" class="cls-1"
    d="M546.6,36.19l1.72.69L547.11,39v3l-2.58,1.56h-2.75l-1.55-1.91.17-2.08L541.61,38H544l2.58-1.73Z" />
  <path id="salisbury" class="cls-1"
    d="M553.14,34.28v2.08l1.72,1.39,2.41-.17,2.07-1.91V34.28h-1.89l-1.55.52-1.21-1.39-1.55.87Z" />
  <path id="wilczek" class="cls-1" d="M563,34.46l1.21,2.6,2.41.17,1.72-.69-.86-2.43-2.24-.52Z" />
  <path id="bell" class="cls-1" d="M572.77,31l-1.89-.35-1.72,1.74L570,34l.52,2.43,2.24-1.73.52-1.91Z" />
  <path id="novaya_zemlya_north" data-name="novaya zemlya north" class="cls-1"
    d="M583.27,49.38l-.52,2.43-4,3.47-8.44,1.91-6.89,11.45-1.21,3.3,6.89,1.74,1-4.16,2.07-6.42,5.34-2.78L582,56.85l3.27-1.39H587V50.78l-3.78-1.4Z" />
  <path id="novaya_zemlya_south" data-name="novaya zemlya south" class="cls-1"
    d="M561.06,74.71l4.65.52,1.55,5.38,4,4.16-1.38,2.78h-2.41L565.19,85l-5-.17L558.13,82V80.09l3.1-.87Z" />
  <path id="komsomolets" class="cls-1"
    d="M633.73,15.55l-2.24-1.39h-2.58l-.52,1.56-2.75,1.56-2.07.69-.34,2.08,4.82.35,5.68-4.85Z" />
  <path id="october" class="cls-1"
    d="M639.06,16.07l-1.21,2.6-2.41-.17-3.79,2.78-1,3.47H633l1.38-2.26,3.27,2.43,3.1-1.39L643,21.62l-.86-2.95L641,16.59l-1.89-.52Z" />
  <path id="bolshevik" class="cls-1" d="M644.06,18l1.21,4.86,1.89,4.51,2.07-3.64,4-.87v-2.6l-2.58-1.91Z" />
  <path id="kotelny" class="cls-1"
    d="M738.54,10.2l2.69,2.26,1.91-.79.56-3.17-3.92-2.71-2.58,1.7-6.28.57v2.83L724.3,11v4.63l7.7,5.76,2-1.47-.45-4.07,4.94-1.24-1-1.92-1.79-1.81,2.79-.68Z" />
  <path id="novaya_sibir" data-name="novaya sibir" class="cls-1"
    d="M745.72,7.49l1.79,3.39,7-.79,1.91-2.49L756,5.45l-2-.79L752.23,6l-5.16,1.13-1.35.34Z" />
  <path id="lyakhovsky" class="cls-1" d="M745.27,20.71l-3.48-.9-2,2.15-.9,2.94,4.71-.45,3.59-1.81-1.91-1.93Z" />
  <path id="wrangel" class="cls-1"
    d="M835.46,1.16l-2.92-.9L829.18,1.5,827.5,4l2.13,2.83,5.61-2.49,1.12-1.24-.9-1.93Z" />
  <path id="sri_lanka" data-name="sri lanka" class="cls-1"
    d="M679.32,305.45l.25,2.72.25,2-1.47.25.74,4.45,2.21,1.24,3.43-2-1-4.69.25-1.73-3.19-3-1.49.72Z" />
  <path id="cuba" class="cls-1"
    d="M219.63,264.32v1.27l5.32.1,2.51-1.46.39,1.07,5.22,1.27,4.64,4.19-1.06,1.46.19,1.66,3.87,1,3.87-1.75,1.74-1.75-2.51-1.27-12.95-7.6-4.54-.49-6.69,2.33Z" />
  <path id="bimini" class="cls-1" d="M238.39,256.53l-1.26-.39-.1,2.43,1.55,1.56,1.06-1.56-1.25-2Z" />
  <path id="andros" class="cls-1" d="M240.9,260.33l-1.74,1,1.64,2.34.87-1.17-.77-2.14Z" />
  <path id="inagua" class="cls-1" d="M246.51,262.08l-1.84-.1.19,1.17,1.35,2,1.16-1.27-.86-1.75Z" />
  <path id="eleuthera" class="cls-1" d="M245.64,259.75l-3-1.27-.58-3,1.16-.49,1.16,2.34,1.16.88.1,1.56Z" />
  <path id="grand_bahama" data-name="grand bahama" class="cls-1"
    d="M242.74,253.61l-1.55-.39-.29-1.95-1.64-.58,1.06-1.07,1.93.68,1.45.88-1,2.43Z" />
  <path id="jamaica" class="cls-1" d="M237.71,277l-3.48.88v1l2,1.17h2.13l1.35-1.56-2-1.46Z" />
  <path id="irian_jaya" data-name="irian jaya" class="cls-1"
    d="M830.71,336.74l-4.17.47-2.68,2,1.11,2.24,4.54.84v.84l-2.87,2.33,1.39,4.85,1.39.09,1.2-4.76h2.22l.93,4.66,10.83,9,.28,7,3.7,4,1.67-.09.37-24.72L844.33,341l-5.93,4-2.13,1.31-3.52-2.24-.09-7.09-1.95-.29Z" />
  <path id="alaska-westcopy" class="cls-1"
    d="M91.89,42.29l-8.39,2,1.73,9.45,9.13,2.49.49,2L81.28,62.44,73.63,75.12l2.71,13.43,4.44,3,3.46-3.23,1,2-4.2,5-16.29,7.46-10.37,2.49L54.13,109l23.94-7,9.87-2.74,9.13-11.19,10.12-6.71L102,90l5.68.75,9.63-4.23,1.73,7L125.7,95l6.91,6.71.49,5-1,1.24,1.23,4.72h1.73l.25-8h2l.49,19.64,4.94-4.23-3.46-20.39H134.1l-5.7-7.19,27.89-47.25L128.65,23.62l-30.85,6L96.57,39l6.66,4-2.47,6.47-8.87-7.2Z" />
  <path id="galapagos" class="cls-1" d="M193.75,335.58l-.62,2.75L192,339.49l.79,1.42,2-.8,1-1.69-.62-1.78-1.4-1.06Z" />
  <path id="banks" class="cls-1"
    d="M202.51,33.29l.22,4-8,8.27,2,6.7,5.76-1.56,3.33-4.92,8.42-3.13,6.87-.45-5.32-5.81-2.66,2-2-.67L210,35.29l-2.44-2.46-5.09.46Z" />
  <path id="prince_patrick" data-name="prince patrick" class="cls-1"
    d="M212.93,21.45l-1.77,3.13,8.65,3.13,3.1-4.69,1.33,3.13h2.22l4.21-4.69-5.1-1.34-2-1.56-2.66,2.68-8,.21Z" />
  <path id="eglinton" class="cls-1"
    d="M228,27.71l-6.87,2.9v2.23L230,36.19l-2,2.23,1.33,2.9,5.54-2.46h4.66l2.22,3.57,3.77-3.8-.89-3.58-3.1,1.12-.44-4.47,1.56-2.7H241.1l-2.44,1.56-1.11.89.67,3.13-1.77,1.34-2.66-.22-.67-4-5.11-4Z" />
  <path id="mackenzie_king" data-name="mackenzie king" class="cls-1"
    d="M237.1,20.78,236.43,23l4.21,2,3.1-1.79-.22-1.34-6.42-1.11Z" />
  <path id="king_christian" data-name="king christian" class="cls-1"
    d="M240.42,17l-3.1,1.12.22,1.56,6.87-.45-.22-1.56Z" />
  <path id="ellef_ringnes" data-name="ellef ringnes" class="cls-1"
    d="M255.28,20.78l-.44,1.56-1.11,1.56v2.23l4.21-.67,4.43,3.8h1.55v-3.8l-4.43-4.92-4.21.24Z" />
  <path id="amund_ringnes" data-name="amund ringnes" class="cls-1"
    d="M266.59,25.25l1.77,2-1.55,2.68,1.11,2.9,4.88-2.68v-2l-2.88-3.35Z" />
  <path id="axel_heiberg" data-name="axel heiberg" class="cls-1"
    d="M273,20.11l.22,3.57h6L280.78,25l-.22,1.56-5.32.67L279,32.39l5.1.89,7.09-3.13L281,14.73l-3.1,2,.22,2.68-3.55-1.34-1.55,2Z" />
  <path id="victoria" class="cls-1"
    d="M221.36,45.36l-8.42,2.23-4.88,4.25.44,4.69,8.87,2.68-2,4.47-6.43-4L207.17,63l4.21,2.9-.22,4.69,6.43,1.79,7.76-.45,1.33-2.46L232.44,76l4-1.34.67-4.47,2.88,2,.44-4.47-3.55-2.23.22-14.07L234,48.93l-3.32,4.47-9.31-8Z" />
  <path id="prince_of_wales" data-name="prince of wales" class="cls-1"
    d="M248.41,55.19l-2.88-1.34-1.55,2,3.1,4.92.22,4.69,6.65-4V55.64l2.44-2.46L254,51.39h-4l-1.55,3.8Z" />
  <path id="prescott" class="cls-1" d="M262.6,53.18,257.94,57l1.11,4.69h2.88l1.33-2.46,2,2,2-.22,5.32-4.47-10-3.35Z" />
  <path id="cornwallis" class="cls-1" d="M262.15,45.8,261,48l4.88,1.79,1.33-2-5.1-2Z" />
  <path id="bathurst" class="cls-1"
    d="M259.27,37.31l-4.88.67-2.88,2.68,5.32.22-1.55,4,1.11,1.79,1.55-.22,3.77-6-2.44-3.13Z" />
  <path id="devon" class="cls-1"
    d="M267.7,35.75l-2.66.89.44,3.57,4.43,2.9.22,2.23-1.33,1.34.67,4.47,17.07,5.58,4.66,1.56,4.66-4-5.54-4.47-5.1,1.34-7.09-.67-2.66-2.68-.67-7.37-4.43-2.23-2.67-2.44Z" />
  <path id="baffin" class="cls-1"
    d="M281.66,59l-4.88-.45L271,60.77,267.92,65l.89,11.62,9.53.45,9.09,4.47,6.43,7.37,4.88-.22-1.33,6.92L293,103l-4.88,2.23-3.55-.67L282.78,103l-2.66,3.57,1.11,3.57,3.77.22,4.66-2.23,4,10.28,10,6.48,6.87-8.71-5.76-9.38,3.33-3.8,4.66,7.82,8.42-7.37-1.55-3.35-5.76,1.79-4-11,3.77-6.25-7.54-8-4.21,2.9-4-8.71L289.46,72l-2.22-10.5-6.87,4.69L279.7,72h-3.77l.44-5.14Z" />
  <path id="bylot" class="cls-1" d="M291.64,63l-1.77,1.79,1.55,2.46,7.32.89-4.66-4.92Z" />
  <path id="ellesmere" class="cls-1"
    d="M284.55,37.76v2l-4.88,1.12L281,43.12l5.54,2.23,6.21.67,4.43,3.13,4.43-2.46-3.1-3.13h4L305,40.88l6-.89V38.65l-3.33-2.23L308,34l9.31,1.56,13.75-5.36L326,28.6l1.33-1.79H338L339.74,25l-21.51-7.6-5.1-1.79-5.54,4-6.21-5.14-3.33-.22-.67,4.25-4.21-3.8-4.88,1.56.89,2.46,7.32,1.56-.44,3.57,4,2.46,9.76-2.46L310,27.2,302,31l-4.88-3.8-4.43.45L297.17,34,295,35.07l-3.33-2.9-2.44,1.56L291.4,38h3.77l-.89,4-3.1-.45-4-4.25-2.64.47Z" />
  <path id="southhampton" class="cls-1" d="M264.79,99.25l-4.23,5.32-.26,5.86,3.7-2.13h4.49l3.17,2.93,2.91-2.4Z" />
  <path id="newfoundland" class="cls-1"
    d="M316.3,168.45l-10.57,10.12,1.06,2.4,12.94,4.79,1.85-3.19-1.06-5.32-4.23.53-2.38-2.66,4-4-1.57-2.68Z" />
  <path id="canada" class="cls-1"
    d="M157,46.06l2,3,1,4,5,1.25,3.49-3.76,3,1.51,8.47.75,6-2.51,1,8.28h3.49V55.1l3.49.25,8.72,10.29,5.73,3.51-3,4.77,1.25,1.25,11.19,2.26.25,5,3,.5.75-7.53,4.73-1.25L230,79.44,237.46,83l3.74.75,2.49-3,.25-4.77,4.48-2.76,1.49,4-4,7,.5,3.51,2.24-3.51,4.48-4,.25-5.27-2.49-4,.75-3.26,6-3,2.74,2,.5,17.57,4.23-3.76,2.48,1.5-3.49,6,4.48,1,6.48-10,5.48,5.77L278.3,95l-5.48,3-5.23-2.51-9.46,2,1,3.26-2.49,4-7.72,1.76-8.72,6.78-7.72,10.29-1,3.26,5.23,2,2,5,7.22,7.28,11.46,5-2.49,11.54-.25,3.26,3,2,4-5.27.5-10,6.23-.25,3-5.77.5-8.78,8-15.56,10,3.51,5.23,7.28-2.24,7.28,4,2.26,9.71-6.53L309.2,149l9,10.79.25,5.52-10,2.51-4.73,5-10-2.26-5-.25L280,177.09l5.23-1.25,6.48-1.25L293,176.1l-1.74,5.52.25,5,3,2,3-.75,1.5-2.26h2l-3.24,6-6.23.25-2.74,4h-3.49l-1-3,5-5-6,2-.27-8.53-1.72-1-5.23,2.26-.5,4.27h-12l-10.21,7-13.7,4.52-1.49-2,6.9-10.3-3.92-3.77-2.49-4.78-5.07-3.87-5.44-.45-9.75-6.83-70.71-11.62L146.58,150l-6.48-6v-5l1-4.52-.5-2.51-2.49-2.51-.5-4,6.48-4.52-4-21.58-5.48-.25-5-6.53Z" />
  <path id="usa" class="cls-1"
    d="M147.54,155.74l-1,4-3.49-2.26h-1.74l-1,4.27L128.1,189.13,131.34,213l4,2,.75,6.53h8.22l8,6L168,229l1.74,8,2.49,1.76,3.49-3.51,2.74,1.25L181,248l4.23,2.76,3.49-6.53,10.71-7.78,7,3.26,6,.5.25-3.76,12.45.25,2.49,2.76.5,6.27-1.49,3.51,1.74,6H232l3.74-5.77-1.49-2.76-1.49-6L235,234l10.21-8.78L252.9,223l-1-7.28,10.71-11.55,10.71-1.76-1.74-6,10.46-6v-8l-1-.5-3.74,1.25-.5,4.92-12.43.15-9.74,6.47-15.29,5-2.44-3,6.94-10.5-3.43-3.27-2.33-4.44-4.83-3.88-5.25-.44-9.92-6.77-70.54-11.61Z" />
  <path id="haida_gwaii" data-name="haida gwaii" class="cls-1"
    d="M132.61,125.81l-1.7,3.26.59,2.31,1.11.69-.26.94-1.19.34.34,3.43,1.28,1.29,1-1.11-1.28-3.34.76-2.66,1.87-2.49-1.36-2.31-1.18-.35Z" />
  <path id="vancouver" class="cls-1"
    d="M138.23,145.35l-1.53.6,2.81,3.26.68,3.86,2.81,3,2.38-.43V151.7l-2.89-1.8-4.26-4.55Z" />
  <path id="guatemala" class="cls-1"
    d="M193.66,288.92l5.93,4.34,6-7.43-1-1.54-2-.07v-4.35l-1.53-.93-4.63,1.38,1.77,4.08-4.46,4.52Z" />
  <path id="honduras" class="cls-1"
    d="M206.33,286.18l9.24-.35,2.74,3.26-1.71-.39-3.29.14-4.3,4L207.17,297l-1.21-.64v-4.48l-2.66-1.78,3-3.89Z" />
  <path id="el_salvador" data-name="el salvador" class="cls-1"
    d="M200.43,293.67l4.7,2.34-.07-3.71-2.41-1.47-2.22,2.84Z" />
  <path id="nicaragua" class="cls-1"
    d="M216.52,289.51l2.19.44.07,4.49-2.55,7.28-6.87-.68-1.53-3.51,2-4.26,3.87-3.6,2.78-.16Z" />
  <path id="costa_rica" data-name="costa rica" class="cls-1"
    d="M216.16,302.38l1.39,2.72,1.13,1.5-1.52,4.51-2.9-2-4.74-4.34V301.9l6.64.52Z" />
  <path id="panama" class="cls-1"
    d="M219.37,307l-1.46,4.56,4.82,1.25,3,.59.51-3.53,3.21-1.62,2.85,1.47,1.12,1.79,1.36-.16,1.07-3.25-3.56-1.47-2.7-1.47-2.7,1.84-3.21,1.62-3.28-1.32-1-.3Z" />
  <path id="colombia" class="cls-1"
    d="M252.51,297.18l-2.06-.21L236.83,308.2l-1.44,3.95-1.86.21.83,8.73-4.75,11.65,5.16,4.37,6.61.42,4.54,6.66,6.6.21-.21,5h2.47l2.68-9.15L255,337.12l.62-5.82,5.16-.42-.62-13.52-11.56-3.74-2.68-7.28,6.61-9.16Z" />
  <path id="venezuela" class="cls-1"
    d="M249.24,303.32l.44,2.59,3.25,1,.74-4.77,3.43-3.55,3.43,4,7.89,2.15,6.68-1.4,4.55,5.61,3.43,2.15-3.76,5.73,1.26,4.34-2.15,2.66-2.23,1.87-4.83-2.43-1.11,1.12v3.46l3.53,1.68-2.6,2.81-2.6,2.81-3.43-.28-3.45-3.79L261,316.87l-11.78-4-2.14-6.27,2.18-3.26Z" />
  <path id="guyana" class="cls-1"
    d="M283.83,311.53l7.22,6.54-2.87,3.32-.23,2,3.77,3.89-.09,3.74-6.56,2.5-3.93-5.31.84-6.38-1.68-4.75,3.53-5.52Z" />
  <path id="suriname" class="cls-1"
    d="M291.91,318.54l2,1.87,3.16-2,2.88.09-.37,1.12-1.21,2.52-.19,6.27-5.75,2.34.28-4L289,323.31l.19-1.78,2.68-3Z" />
  <path id="guyane" class="cls-1" d="M300.91,319.2l5.85,3.65-3.06,6.08-1.11,1.4-3.25-1.87.09-6.55,1.48-2.71Z" />
  <path id="ecuador" class="cls-1"
    d="M229,333.25l-4.73,2.94-.34,4.36L223,342l3,2.86-1.29,1.41.3,3.6,5.33,1.27,8.07-9.55v-3.33l-3.87-.25Z" />
  <path id="peru" class="cls-1"
    d="M223.81,346.92l-1.94,2L222,352l16.94,30.88,17.59,11.34,2.72-4.56.65-10-1.42-6.25-4.79-8.08-2.85.91-1.29,1.43-5.69-6.52,1.42-7.69,6.6-4.3-.52-4-6.72-.26-3.49-5.9-1.94-.65.13,3.52-8.66,10.29-6.47-1.56-.4-3.66Z" />
  <path id="bolivia" class="cls-1"
    d="M257.49,370.19l8.23-3.59,2.72.26,1.81,7.56,12.54,4.17,2.07,6.39,5.17.65,2.2,5.47-1.55,4.95-8.41.65-3.1,7.95-6.6-.13-2.07-.39-3.81,3.7-1.88-.18-6.47-15,1.79-2.68.63-10.6-1.6-6.31-1.67-2.88Z" />
  <path id="paraguay" class="cls-1"
    d="M290.54,396.91l2.2,2.4-.26,5.08,6.34-.39,4.79,6.13-.39,5.47-3.1,4.69-6.34.26-.26-2.61,1.81-4.3-6.21-3.91H284l-3.88-4.17,2.82-8.06,7.65-.59Z" />
  <path id="uruguay" class="cls-1" d="M299.14,429.33l-2.05,2.19.85,11.78,6.44,1.87,8.19-8.21-13.43-7.63Z" />
  <path id="argentina" class="cls-1"
    d="M304.25,415.6l1.94,1.82-7.37,10.95-2.59,2.87.9,12.51,5.69,6.91L298,459l-3.62,1.56h-4.14l1.16,6.51-6.4,2.22,1.55,5.47-3.88,12.38,4.79,3.91-2.59,6.38-4.4,6.91,2.33,4.82-5.69.91-4.66-5.73-.78-17.85-7.24-30.32,2.19-10.6L261.93,432l3.1-17.59,2.85-3.39-.7-2.57,3.66-3.34,8.16.56,4.56,4.87,5.27.09,5.4,3.3-1.59,3.72.38,3.76,7.65-.36,3.58-5.47Z" />
  <path id="tierra_del_fuego_chile" data-name="tierra del fuego chile" class="cls-1"
    d="M283.82,511.5l-4.27,9.38,7.37.78.13-6.25-3.23-3.91Z" />
  <path id="tierra_del_fuego_argentina" data-name="tierra del fuego argentina" class="cls-1"
    d="M287.7,516.19l.26,5.73,4.4-.39,3.75-2.48-6.34-1.3Z" />
  <path id="chile" class="cls-1"
    d="M282.37,510l-3.21,3.55-.39,4.17-6.21-3.52-6.6-9.51-2-3.36,2.72-3.52-.26-4.43-3.1-1.3-2.46-1.82.52-2.48,3.23-.91.65-14.33-5-2.87L257,395.08l.85-1.48,6.44,14.85h2.06l.67,2.37-2.74,3.32L261.13,432l4.48,13.76-2.07,10.42,7.3,30.64.77,17.92,5.23,6,5.54-.81Z" />
  <path id="chiloe" class="cls-1" d="M261.06,472.54l-1.29,1.95.65,3.39,1.29.13.65-4.3-1.3-1.17Z" />
  <path id="brazil" class="cls-1"
    d="M313,436.25l6.25-12,.23-10.1,11.66-7.52h6.53l5.13-8.69.93-16.68-2.1-4.46L354,365.5l.47-12.45-16.79-8.22-20.28-6.34-9.56-.94,2.57-5.4-.7-8.22-2.09-.69-3.09,6.14-1.62,2-4.16-1.84-14,4.93-4.66-5.87.75-6.13-4.4,4.48-4.86-2.62-.49.69v2.13l4.19,2.25L269,336.06h-4L261,332l-4.55.14-.56,4.86,2.61,3.17L255.45,350l-3.6.28-5.73,3.62-1.4,7.11,5,5.32.91-1,3.49-.94,3,5,8.53-3.66,3.31.19,2.28,8.07,12.17,3.86,2.1,6.44,5.18.62,2.47,6.15-1.67,5.47,2.18,2.86-.32,4.26,5.84-.55,5.35,6.76-.42,4.75,3.17,2.68-7.6,11.51Z" />
  <path id="belize" class="cls-1" d="M203.34,279.8l-.05,3.65h.84l2.86-5.34h-1.94l-1.71,1.69Z" />
  <path id="russia" class="cls-1"
    d="M816.75,70.33l1.76,6.08,3.52,1,3.52-5.57-2-3.8.75-3.29h5.28l-1.26,2.53.5,9.12-7.54,18.74.75,4-.25,6.84,14.07,20.51,2.76.76.25-16.71,2.76-2.53-3-6.58,2.51-2.79L835.6,91.3l-3,.25-1-12.15,7.79-2,.5-3.55,4-1,2.26,2,2.76-11.14,4.77-8.1,3.77-2,3.27.25v-3.8l-5.28-1L848.12,43l3.52-4-3-6.84,2.51-2.53,3,4,7.54,2.79,8.29.76,1-3.54-4.27-4.3,4.77-6.58L860.68,19l-2.76,5.57L854.4,20l-19.85-6.84L815.7,16.41l-2.76,1.52v1.52l4,2-.5,4.81-7.29-3-16.08,6.33-2.76-5.82h-11l-5,5.32L756.4,25l-16.33,3.29-2,5.06,2.51.76-.25,3.8L724.5,39.68l1,5.06-14.58-2.53,3.52-6.58-14.83-.76,1.26,6.84L696.1,44l-4-3.8L675.75,43l-6.28,5.82-.25,3.54-4,.25-.5-4,12.82-11.14v-7.6l-8.29-2.28-10.81,3.54-4.52-4.56h-2l-2.51,5.06,2,2.28-14.33,7.85-12.31,9.37-7.54,10.38v4.3l8,3.29-4,3-8.54-3-3.52,3L603.89,66l-1,2.28,5.78,18.23,1.51.51,4-2,2,1.52v3.29l-3.77-1.52-2.26,1.77,1.51,3.29L610.42,102l-7.79.76-.5-2.79,4.52-2.79,1-7.6-5-6.58-1.76-11.39-8-1.27-.75,4,1.51,2-3.27,2.79,1.26,7.6,4.77,2,1,5.57-4.78-3L580.32,89l-1.51,4L569,96.65l-1.51-2.53-12.82,7.09-.25,4.81-5,.76,1.51-3.54V99.7l-5-1.77-3.27,1.27,2.76,5.32,2,3.54v2.79l-3.77-.76-.75-.76-3.77,4,2,3.54-8.54-.25,2.76,3.55-.75,1.52H530l-3.27-2.28-.75-6.33-5.28-2v-2.53l11.06,2.28,6,.51,2.51-3.8-2.26-4-16-6.36-5.55,1.38-1.9,1.63.59,3.75,2.36.41-.55,5.9,7.28,17.1L519,135.69l-.36,1.88,2.67,1.88L518.83,141h-1.6l.3,7.35,2.21,3.13v3l2.83.26,4.33,1.65,4.58,6.3v1.66L530.07,167l3.42-.19,3.33,1,4.5,6.37,11.08,1-.48,7.58L548.1,186l.79,1.28-3.77,4.05-1,3.8,2.26,3.29,7.29,2.53,3-1.77L576,206.53l.75-2-4-3.8v-4.81l-2.51-.76.5-4,4-4.81-7.21-5.4.5-7.51,7.71-5.07,9,.51,1.51,2.79,9.3.51,6.79-3.8-3.52-3.8.75-7.09,17.59-8.61,13.53,6.1,4.52-4,13.32,12.66,10-1,3.52,3.54,9.55,1,6.28-8.61,8,3.55,4.27.76,4.27-3.8-3.77-2.53,3.27-5.06,9.3,3,2,4,4,.25,2.51-1.77,6.79-.25.75,1.77,7.79.51,5.28-5.57,10.81,1.27,3.27-1.27,1-6.08-3.11-7.3,3.27-2.79h10.3l9.8,11.65L780.29,156h3.77l.5-3,4.52-2.79.5,16.46-4,.25v4l2.26,2.79-.42,3.62,1.67.69,1-2.53,1.51.51,1,1,4.52-1,4.52-13.17.5-16.46-5.78-13.17-7.29-8.86-3.52.51v2.79L777,124.28l3.27-7.09L783,98.45l11.56-3.54,5.53-3.54h6l-1.51,2,1.51,2.53,5.28-5.57,3,.25-.5-3.29-4.78-1,3.27-11.9,4.31-4.08Z" />
  <path id="china" class="cls-1"
    d="M669.18,167.47l-3.46,8.7-4.77-.25-5,11,4.27,5.44-8.8,12.15-4.52-.76-3,3.8.75,2.28,3.52.25,1.76,4,3.52.76,10.81,13.93v7.09l5.28,3.29,5.78-1,7.29,4.3,8.8,2.53,4.27-.51,4.78-.51,10-6.58,3.27.51,1.25,3,2.77.83,3.77,5.57L719,252.88l1.51,3.8,4.27,1.52.75,4.56,5,.51.75-2.28,7.29-3.8,4.52.25,5.28,5.82,3.52-1.52,2.26.25,1,2.79L757,265l2.51-3.54,10-3.8,9-10.89,3-10.38-.25-6.84-3.77-.76,2.26-2.53-.5-4-9.55-9.62v-4.81l2.76-3.54L775.3,203l.25-2.79h-7l-1.26,3.8-3.27-.76-4-4.3,2.51-6.58,3.52-3.8,3.27.25-.5,5.82,1.76,1.52,4.27-4.3,1.51-.25-.5-3.29,4-4.81,3,.25,1.76-5.57,2.06-1.09.21-3.47-2-2.1-.17-5.48,3.85-.25-.25-14.13-2.7,1.62-1,3.62h-4.51L767,149.55l-9.44-11.38-9.58-.1-2.44,2.12,3.1,7.1L747.57,154l-3.86,1.6-2.17-.17-.16,6.59,2.26.51,4-1.77,5.28,2.53v2.53l-3.77.25-3,6.58-2.76.25-9.8,12.91-10.3,4.56-7,.51-4.77-3.29-6.79,3.55-7.29-2.28-1.8-4.86-12.31-.76-6.53-10.63H674l-2.22-4.93Z" />
  <path id="mongolia" class="cls-1"
    d="M672.58,167.57l5.82-7.72,7,3.23,4.75,1.27L696,159l-4-2.91,2.6-3.67,7.76,2.74,2.69,4.41,4.86.13,2.54-1.89,5.23-.21,1.14,1.94,8.69.44,5.5-5.61,7.61.8-.44,7.64,3.33.76,4.09-1.86,4.33,2.14-.1,1.08-3.14.09-3.27,6.86-2.54.25L733,185.05l-10.09,4.45-6.31.49-5.24-3.38-6.7,3.58-6.6-2.05-1.87-4.79-12.5-.88-6.4-10.85-3.11-.2-1.61-3.85Z" />
  <path id="north_korea" data-name="north korea" class="cls-1"
    d="M777.06,191.67l1.84.77.56,6.44,3.65.21,3.44-4L785.36,194l.14-4.32,3.16-3.82-1.61-2.9,1.05-1.2.58-3-1.83-.83-1.56.79-1.93,5.86-3.12-.27-3.61,4.26.43,3.1Z" />
  <path id="south_korea" data-name="south korea" class="cls-1"
    d="M787,195.48l7.09,2,4.68,4-.19,4.68-3.69,4.63-3.73,1.37-2.74-.8-.33-5.29-2.36-2.6.48-1.87-.58-1.34-1.87-.89Z" />
  <path id="kazakhstan" class="cls-1"
    d="M575.47,186l4.1-1.75,4.58-.16.32,7h-2.68l-2,3.34,2.68,4.45,4,2.23.36,2.55,1.45-.48,1.34-1.59,2.21.48,1.11,2.23h2.84v-2.86L594,196.35l-.79-4.13,5-2.22,6.79,1.11,4.26,4.29,9.63-1,5.37,7.63,6.31.32,1.74-2.86,2.21-.48.32-3.18,3.31-.16,1.74,2.07,1.74-4.13,15,2.07,2.52-3.34-4.26-5.25,5.68-12.4,4.58.32,3.16-7.63-6.3-.63-3.63-3.5-10,1.16L635.47,152l-4.54,4-13.77-6.25L600.27,158l-.47,5.88,4,4.61-7.7,4.35-10-.22-2.1-3-7.83-.43L568.72,174l-.16,6.52,6.91,5.55Z" />
  <path id="turkmenistan" class="cls-1"
    d="M592.63,205l-.62,2.63h-4.15v3.56l4.46,2.94-1.38,4V220l1.85.31,2.46-3.25,5.54-1.24,11.84,4.49.15,3.25,6.61.62,7.38-7.75-.92-2.48-4.92-1.08-13.84-9-.62-3.25h-5.23L598.93,205Z" />
  <path id="uzbekistan" class="cls-1"
    d="M627.7,216.46l3.08.16v-5.27l-2.92-1.7,4.92-6.2h2l2,2.33,5.23-2-7.23-2.48-.28-1.5-1.72.42-1.69,2.94-7.29-.24-5.35-7.57-9.4.93-4.48-4.44-6.2-1.05-4.5,1.83,2.61,8.68v2.92h1.9l2.33-4.44,6.2.08.92,3.41,13.29,8.82,5.14,1.18,1.41,3.16Z" />
  <path id="tajikistan" class="cls-1"
    d="M629,209.24l4.11-5.1h1.55l.54,1.14-1.9,1.38v1.14l1.25.9,6,.36,2-.84.89.18.6,1.92,3.57.36,1.79,3.78-.54,1.14-.71.06-.71-1.44-1.55-.12-2.68.36L643,217l-2.68-.18.12-3.18-2-1.92-3,2.46.06,1.62-2.62.9h-1.55l.12-5.58Z" />
  <path id="kirgizstan" class="cls-1"
    d="M635.59,196.61l-.31,2.53.25,1.56,8.7,2.92-7.64,3.08-.87-.72-1.65,1,.08.58.88.4,5.36.14,2.72-.82,3.49-4.4,4.37.76,5.27-7.3-14.1-1.92-1.95,4.73-2.46-2.64h-2.14Z" />
  <path id="afghanistan" class="cls-1"
    d="M612.9,224.45l1.59,12.46,4,.87.37,2.24L616,242.39l5.29,4.27,10.28-3.7.82-4.38,6.47-4,2.48-9.36,1.85-2-1.92-3.34,6.26-3.87-.8-1.12-2.89.18-.26,2.66H639.7l-.07-3.55-1.25-1.49-2.1,1.91.06,1.75-3.17,1.2-5.85-.37-7.6,8-6.8-.62Z" />
  <path id="pakistan" class="cls-1"
    d="M621.91,247.24l2.6,3.86-.25,2-3.46,1.37-.25,3.24h4l1.36-1.12h7.54l6.8,6,.87-2.87h5.07l.12-3.61-5.19-5,1.11-2.74,5.32-.37,7.17-15-4-3.11-1.48-5.23,9.64-.87-5.69-8.1-3-.82-1.24,1.5-.93.07-5.69,3.61,1.86,3.12-2.1,2.24-2.6,9.59L633,239.15l-.87,4.49-10.25,3.6Z" />
  <path id="india" class="cls-1"
    d="M669.76,310.41l4.58-2.24,2.72-9.84-.12-12.08,15.58-16.82v-4l3.21-1.25-.12-4.61-3.46-6.73,2-3.61,4.33,4,5.56.25v2.24l-1.73,1.87.37,1,3,.12.62,3.36h.87l2.23-4,1.11-10.46,3.71-2.62.12-3.61-1.48-2.87-2.35-.12-9.2,6.08.58,3.91h-6.46l-2.28-2.79-1.24.16.42,3.88-14-1-8.66-3.86-.46-4.75-5.77-3.58-.07-7.37-4-4.53-9.1.87,1,4,4.46,3.61L648,248.75l-5.16.39L642,251l5.08,4.7-.25,4.75-5.19-.08-.56,2.36,4.31-.19.12,1.87L642.42,266l2,3.74,3.83,1.25,2.35-1.74,1.11-3.11,1.36-.62,1.61,1.62-.49,4L653.08,273l.25,3.24,16.43,34.1Z" />
  <path id="nepal" class="cls-1" d="M670,240l.46,4.27,8.08,3.66,13,1-.49-3.13-8.65-2.38L675,239Z" />
  <path id="bhutan" class="cls-1" d="M694.18,245.48l1.55,2.12H701l-.53-2.9-6.26.74Z" />
  <path id="bangladesh" class="cls-1"
    d="M694.35,250.51,693,252.88l3.4,6.46.1,5,.62,1.35,4,.07,2.26-2.17,1.64,1,.33,3.07,1.31-.82.08-3.92-1.1-.13-.69-3.33-2.78-.1-.69-1.85,1.7-2.27v-1.12H698.3l-3.95-3.64Z" />
  <path id="burma" class="cls-1"
    d="M728.22,301.05l-2.77-4.44,2-2.82-1.9-3.49-1.79-.34-.34-5.86-2.68-5.19-.78,1.24-1.79,3-2.24.34L714.81,282l-.56-3.95L712.58,275l-6.84-6.45,1.68-1.11.31-4.67,2.5-4.2,1.08-10.45,3.62-2.47.12-3.81,2.17.72,3.42,5L718.1,253l1.71,4.27,4.23,1.66.77,4.65,5.68.88-1.57,2.71L721.76,270l-.78,4.62,5.26,6.76.22,3.61-1.23,1.24.11,1.13,3.92,5.75.11,6-1.15,2.08Z" />
  <path id="thailand" class="cls-1"
    d="M728.81,267.87l3.24,4.17v5.07l1.12.56,5.15-2.48,1,.34,6.15,7.1-.22,4.85-2-.34L741.46,286l-1.34.11-2.35,3.94.45,2.14,1.9,1-.11,2.37-1.34.68-4.59-3.16v-2.82l-1.9-.11-.78,1.24L731,304l3,5.42,5.26,5.07L739,316l-2.8-.11-2.57-3.83H731l-3.36-2.71-1-2.82,1.45-2.37.5-2.14,1.58-2.8-.07-6.44-3.86-5.58-.16-.68,1.25-1.26-.29-4.43-5.14-6.51.6-3.75,6.37-2.69Z" />
  <path id="malaysia" class="cls-1"
    d="M731.49,312.85l2,4.51.45,5.86,2.69,4.17,6.49,3.94,2.46.23-.45-4.06L743,322.32l-3.12-6.63-.26,1.16-3.76-.17-2.7-3.88-1.68.05Z" />
  <path id="cambodia" class="cls-1"
    d="M739.26,296.87l4.09,4.37L751,295.6l.67-8.9-3.93,2.71-2-1.14L743,287.9l-1.55-1.09h-.75l-2,3.33.33,1.54,2.06,1.15L740.7,296Z" />
  <path id="laos" class="cls-1"
    d="M734.25,260.33l-2.42,1.23-2,5.86,3.36,4.28-.56,4.73.56.23,5.59-2.71,7.5,8.38-.18,5.28,1.63.88,4-3.27-.33-2.59-11.63-11.05.11-1.69,1.45-1-1-2.82-4.81-.79-1.28-4.94Z" />
  <path id="vietnam" class="cls-1"
    d="M743.84,301.85l1.19,1.87.22,2.14,3.13.34,3.8-5.07,3.58-1,1.9-5.18-.89-8.34-3.69-5.07-3.89-3.11-5-8.5,3.55-5.94-5.08-5.83-4.07-.18-3.66,2,1.09,4.71,4.88.86,1.31,3.63-1.72,1.12.11.9,11.45,11.2.45,3.29-.69,10.4-8,5.8Z" />
  <path id="georgia" class="cls-1"
    d="M554.24,201.56l3.27,4.27,4.08,1.88h2.51l4.31-1.17,1.08-1.69-12.75-4.77-2.5,1.49Z" />
  <path id="armenia" class="cls-1" d="M568.5,207.29l4.8,6.26-1.41,1.65-3.4-.59-4.22-3.78.23-2.48Z" />
  <path id="azerbaijan" class="cls-1"
    d="M570.19,205.12l-1,1.72L573.9,213l1.64-.53,2.7,2.83,1.17-5,2.93.47-.12-1.42-4.82-4.22-.92,2.48-6.28-2.55Z" />
  <path id="iran" class="cls-1"
    d="M568.43,215.35l-1.22,1.27.12,2,1.52,2.13,5.39,5.9-.82,2.36h-.94l-.47,2.36,3,3.9,2.81.24,5.63,7.79,3.16.24,2.46,1.77.12,3.54,9.73,5.67h3.63l2.23-1.89,2.81-.12,1.64,3.78,10.51,1.46.31-3.86,3.48-1.26.16-1.38L621,247.48l-6.17-5,3.24-3-.23-1.3-4.06-.63L612,223.94l-.2-3.15-11-4.21-4.88,1.1L593.21,221l-2.42-.16-.7.59-5.39-.35-6.8-5-2.53-2.77-1.16.28L572.12,216l-3.69-.7Z" />
  <path id="turkey" class="cls-1"
    d="M557.48,206.59,555.25,209l-8.2-.24-4.92-3-4.8-.12-5.51,3.9-5.16.24-.47,2.95h-5.86L518,214.86V216l1.41,1.18v1.3l-.59,1.54.59,1.3,1.88-.94,1.88,2-.47,1.42-.7,1,1,1.18,5.2,1,3.63-1.54v-2.24l1.76.35,4.22,2.48,4.57-.71,2-1.89,1.29.47v2.13h1.76l1.52-3,13.36-1.42,5.83-.71-1.54-2v-2.73l1.17-1.4-4.26-3.42.23-3H561.4l-3.88-1.9Z" />
  <path id="yemen" class="cls-1"
    d="M570.77,286.63l1.44,4.28v4.18l3.46,3.14,24.38-9.93.23-2.73-3.91-7-9.81,3.13-5.63,5.54-6.53-3.86-3.63,3.27Z" />
  <path id="oman" class="cls-1"
    d="M597.16,278.24l7.39-4.26,1.31-6.25-1.62-.93.67-6.7,1.41-.82,1.51,2.37,9,4.7V269l-10.89,16-5,.17-3.76-6.92Z" />
  <path id="emirates" class="cls-1" d="M592.79,262.34l.87,3.48,9.86.87.69-7.14,1.9-1,.52-2.61-3.11.87L600.06,262Z" />
  <path id="qatar" class="cls-1" d="M591.41,256.42l-.52,4,1.54,1.17,1.4-.13.52-5-1.21-.87-1.73.87Z" />
  <path id="kuwait" class="cls-1" d="M582.07,244.57l-2.25-1.22-1.56,1.57.17,3.14,3.63,1.39v-4.88Z" />
  <path id="saudi" class="cls-1"
    d="M582.78,250.64l7,9.77,2.26,1.8,1,4.38,10.79.85,1.22.64-1.21,5.4-7.09,4.18L586.4,280.8l-5.53,5.4-6.57-3.83-4,3.48-5.54-9.05-3.8-1.74L559.6,273v-4.53l-13.83-16.72-.52-3h4l4.84-4.18.17-2.09-1.38-1.39,2.77-2.26,5.88.35,10,8.36,5.92-.27.38,1.46,4.94,1.9Z" />
  <path id="syria" class="cls-1"
    d="M545.45,226.53l-.35,2.54,2.82,1.18-.12,7,2.82-.06,2.82-2.13,1.06-.18,6.4-5.09,1.29-7.39-12.79,1.3-1.35,3-2.6-.17Z" />
  <path id="iraq" class="cls-1"
    d="M563.09,222.43l-1.56,7.71-6.46,5.38.41,2.54,6.31.43,10.05,8.18,5.62-.16.15-1.89,2.06-2.21,2.88,1.63.38-.36-5.57-7.41-2.64-.16-3.51-4.51.7-3.32,1.07-.14.37-1.47-4.78-5-5.48.79Z" />
  <path id="jordan" class="cls-1"
    d="M547.68,238.18l-2.46,8.58-.11,1.31H549l4.33-3.82.11-1.45-1.79-1.8,3.17-2.63-.46-2.44-.87.2L550.85,238l-3.17.17Z" />
  <path id="lebanon" class="cls-1" d="M545,229.84l.06,1.95-.82,3L547,235l.18-4.2-2.24-1Z" />
  <path id="israel" class="cls-1" d="M544.1,235.46l-1.58,5,2.05,6,2.35-8.81v-1.89l-2.82-.36Z" />
  <path id="cyprus" class="cls-1" d="M542,227.24l1.23.89-3.81,3.61-1.82-.06-1.35-1,.18-1.77,2.76-.18,2.81-1.54Z" />
  <path id="norway" class="cls-1"
    d="M514.24,99.54l2-1.48-.18-1.66-1.28-.74.18-2h1.1V92.52l-4.77-1.29-7.15.74-.73,3.14-1.65-.55-1.1-1.85-3.49.18-.37,3.51-1.65.74-.92-1.85-7.34,5.91,1.47,1.66-2.75,1.29-6.24,12.38-2.2,1.48.18,1.11,2.2,1.11-.55,2.4-3.67-.19-1.1-1.29-2.38,2.77L470.4,125l-.37,2.59-1.28.74-3.3.74-1.65,5.18,1.1,8.5,1.28,3.88,1.47,1.48L471,148l4.77-4.62,1.83-3.14.55,4.62,3.12-5.54.18-15.53,2.54-1.6.76-8.57,7.7-11.09,3.67-1.29,1.65-2,5.5,1.29,2.75,1.66.92-4.62,4.59-2.77,2.76,4.81Z" />
  <path id="britain" class="cls-1"
    d="M444.9,146.48l-1.83,2.77.73,1.11H448v1.85l-1.1,1.48.73,3.88,2.38,4.62,1.83,4.25,2.93,1.11,1.28,2.22-.18,2L454,172.88l-.18.92,1.28.74L454,176l-2.57,1.11-5-.55-7.71,3.51-2.57-1.29,7.34-4.25-.92-.55-3.85-.37,2.38-3.51.37-3,3.12-.37-.55-5.73-3.67-.18-1.1-1.29.18-4.25-2.2.18,2.2-7.39,4-3,1.3,1.28Z" />
  <path id="ulster" class="cls-1" d="M437.2,158.87l-3.3.37-.18,3,2.2,1.48,2.38-.55.92-1.66-2-2.6Z" />
  <path id="ireland" class="cls-1"
    d="M438.29,164l-.91,6-8.07,3h-2.57l-1.83-1.29V170.6l4-2.59-1.1-2.22.18-3.14,3.49.18,1.6-3.76-.21,3.34,2.71,2.15,2.67-.52Z" />
  <path id="sweden" class="cls-1"
    d="M496.5,102l2,1.81h3.67l2,3.88.55,6.65-5,3.51v3.51l-3.49,4.81-2,.18L491.49,131l.18,4.44,4.77,3.51-.37,2-1.83,2.77-2.75,2.4.18,8-4.22,1.48L486,158.67h-2l-1.1-5.54-4.59-7,3.77-6.31.26-15.59,2.6-1.43.63-8.92L493,103.27Z" />
  <path id="finland" class="cls-1"
    d="M505.57,114.34l2.07.91,1.28,2.4-1.28,1.66-6.42,7-1.1,3.7,1.47,5.36,5,3.7,6.6-3.14,5.32-.74,5-8-3.67-8.69-3.49-8.32.55-5.36-2.2-.37-.57-3.91-3-4.83L507.8,98l-1.29,5.27-3.51-2-4.84-1.18-1.08,1.26L499,103l3.39-.06,2.73,4.41.49,7Z" />
  <path id="path302" class="cls-1" d="M516.85,148.77,510,147.66l.15,3.83,6.35,3.88,2.6-.76-.15-2.92-2.1-2.92Z" />
  <path id="hiumaa" class="cls-1" d="M505.54,145H504l-.9.91.65,1,1.55.1.8-1.16-.55-.76Z" />
  <path id="saaremaa" class="cls-1" d="M505.39,149.12l-1.5-.15-2.7,3.23v1.51l.9.35,1.75.05,2.9-2.37.4-.81-1.75-1.81Z" />
  <path id="lithuania" class="cls-1"
    d="M509.59,152.1h-2.15l-2.95,2.82H502l.15,3.53-1.5,2.77,5.4.05,1.55-.2,1.55,1.87,3.55-.15,3.4-4.33-.2-2.57-6.3-3.74Z" />
  <path id="belarus" class="cls-1"
    d="M509.44,163.69l1.5,2.47-.6,2,.1,1.56.55,1.87,3.1-1.76,3.85.1,2.7,1.11h6.85l2-4.79,1.2-1.81V163.2l-4.3-6-3.8-1.51-3.1-.35-2.7.86.1,2.72-3.75,4.74-3.7.08Z" />
  <path id="poland" class="cls-1"
    d="M510.24,172.16l.85,1.56.2,1.66-.7,1.61-1.6,3.08-1.35.61-1.75-.76-1.05.05-2.55,1-2.9-.86-4.7-3.33-4.6-2.47-1.85-2.82-.35-6.65,3.6-3.13,4.7-1.56,1.75-.2-.7,1.41.45.55,7.91.15,1.7-.05,2.8,4.29-.7,1.76.3,2.07.54,2.07Z" />
  <path id="spain" class="cls-1"
    d="M447.14,202.4H434.4l-2.57-1.16-1.24.09-1.5,3.12.53,3.21,4.87.45.62,2-2.12,12,.09,2.14,3.45,1.87,4,.27,8-2,3.89-4.9.09-5,6.9-6.24.35-2.76-6.28-.09-6.28-3Z" />
  <path id="portugal" class="cls-1"
    d="M429.71,208.64l-.62,8.65-1.77,1.6.18,1,1.24,2-.8,2.5,1.33.45,3.1-.36-.18-2.5,2-11.59-.44-1.6-4.07-.18Z" />
  <path id="majorca" class="cls-1" d="M459.88,214.61l-1.59.54.35,1.43h2.3l1-1.07-2-.9Z" />
  <path id="sardinia" class="cls-1" d="M476.34,210.78l-2.65,1.34.35,5.17,2.12.36,1.59-1.52v-4.9Z" />
  <path id="corsica" class="cls-1" d="M476.61,204.36l-1.95,2-.18,1.78,1.59,1,.62-.09.35-2.59-.43-2Z" />
  <path id="france" class="cls-1"
    d="M459.18,176.1l-2.21.54-4.42,4.81-1.33.09-1.77-1.25-1.15.27-.88,2.76-6.46.18.18,1.43,4.42,2.94,5.13,4.1-.09,4.9-2.74,4.81,5.93,2.85,6,.18,1.86-2.14,3.8.09,1.06,1,3.8-.27,1.95-2.5L469.78,198l-.18-1.87.53-2.05-1.24-1.78-2.12.62-.27-1.6,4.69-5.17V183l-3.1-1.78L466.5,181l-7.34-4.81Z" />
  <path id="netherlands" class="cls-1"
    d="M468.87,165.67l-4.53,2.23,1,.87.1,2.23-1-.19-1.06-1.65-2.53,4,3.89.81,1.45,1.53H467l.51-3.46,2.45-1-1.05-5.37Z" />
  <path id="belgium" class="cls-1"
    d="M460.39,173.92l-.64,1.6,6.88,4.54,2,.47.07-2.15-1.7-1.94h-1.06l-1.45-1.65-4.05-.87Z" />
  <path id="germany" class="cls-1"
    d="M469.92,165.28l3.57-.58v-2.52l3-.49,1.64,1.65,1.73.19,2.7-1.17L485,163l2.12,1.84.29,6.89,2.12,2.82-2.79.39-4.63,2.91.39,1,4.14,3.88-.29,1.94-3.85,1.94-3.57.1-.87,1.84h-1.83l-.87-1.94-3.18-.78-.1-3.2-2.7-1.84.29-2.33L467.8,176l.48-3.3,2.5-1.17-.86-6.2Z" />
  <path id="denmark" class="cls-1"
    d="M475.55,148.9l-4.15,4.59-.15,3,1.89,4.93,3-.56-.37-4,2-2.28v-1.79L476.29,149l-.74-.12Z" />
  <path id="sjlland" class="cls-1" d="M480.22,157h-.93l-1.22,1.12.15,1.75,2.89.08.15-2-1-.93Z" />
  <path id="gotland" class="cls-1" d="M497.27,147.57l-2.11,1.67,1.06,2.45,1.87-1.82-.82-2.3Z" />
  <path id="switzerland" class="cls-1"
    d="M471.69,186.78l-4.36,4.64.09.47,1.79-.56,1.61,2.24,2.72-1,1.88,1.46.77-.44,2.32-3.64-.59-.56-2.29-.06-1.11-2.27-2.83-.32Z" />
  <path id="czech" class="cls-1" d="M487.21,182.27h4.43L494,184l4.39-3.65-4.26-3-4.22-2-2.89.52-3.92,2.52,4.1,4Z" />
  <path id="slovakia" class="cls-1"
    d="M494.62,184.53l.69.61.09,1L503,186l5.64-2.43-.09-2.47-1.08.48-1.55-.83H505l-2.5,1-3.4-.82-4.48,3.63Z" />
  <path id="austria" class="cls-1"
    d="M479.41,187.52l-.65,1.35.56,1,2.33-.48h2l2.15,1.82,4.57-.83,3.36-2,.86-1.35-.13-1.74-3-2.26h-4l-.34,2.3-4.26,2.08-3.36.11Z" />
  <path id="hungary" class="cls-1"
    d="M495.52,187l-1.16,1.82.09,2.78,1.85,1,5.69.17,7.93-6.68v-1.48l-.86-.43-5.73,2.6-7.85.27Z" />
  <path id="slovenia" class="cls-1" d="M493.58,189.39,491,190.91l-4.74,1,.95,2.74h3.32l3.06-2.56,0-2.78Z" />
  <path id="croatia" class="cls-1"
    d="M494.4,192.56l-3.53,2.91h-3.58l-.43,2.52,1.64.43.82-1.22,1.29,1.13,1,3.6,7.07,3.3.7-.8-7.17-7.4.73-1.35,6.81-.26.69-2.17-4.44.13-1.63-.82Z" />
  <path id="bosnia" class="cls-1" d="M493.58,196.34l-.37.61,6.71,6.92,2.46-3.62-.09-1.43-2.15-2.61-6.56.13Z" />
  <path id="italy" class="cls-1"
    d="M471.05,194.38l-.62,1.57.17,1.71,2.39,2.79,3.76-.13,8.3,9.64,5.18,1.5,3.06,2.89.73,6.59,1.64-1,1.42-3.59-.35-2.58,2.43-.22.35-1.46-6.85-3.28-6.5-6.39-2.59-3.82-.63-3.63,3.31-.79-.85-2.39-2-1.71-1.75-.08-2.44.67-2.3,3.22-1.39.92-2.15-1.32-2.29.85Z" />
  <path id="sicily" class="cls-1" d="M491.22,220.42l-1.45-.78-4.95.78.17,1.34,4.45,2.24.67.73,1.17.17-.06-4.48Z" />
  <path id="malta" class="cls-1" d="M491.39,227.87l-1.67.34.06,1.85,1.5.5L492,230l-.56-2.13Z" />
  <path id="ukraine" class="cls-1"
    d="M514.35,170.55l-2.9,1.63.72,3.08-2.68,5.65v2.49l1.26.8,8.08.4,2.26-1.87,2.42.81,3.47,4.63-2.54,4.56,3,.88,3.95-4.55,2.26.41,2.1,1.46-1.85,2.44,2.5,3.9h2.66l1.37-2.6,2.82-.57.08-2.11-5.24-.81.16-2.27h5.08l5.48-4.39,2.42-2.11.4-6.66-10.8-1-4.43-6.25-3.06-1.05-3.71.16L528,171.77l-7.6.1-2.47-1.14-3.58-.18Z" />
  <path id="moldova" class="cls-1" d="M519.53,185.11l3.1,4.77-.26,2.7h1.11l2.63-4.45L523,184.26l-1.79-.74-1.63,1.59Z" />
  <path id="romania" class="cls-1"
    d="M511,185l-.26,1.48L505,191.3l4.84,7.1,3.1,2.17h5.58l1.84-1.54,2.47-.32,1.84,1.11,3.26-3.71-.63-1.86-3.31-.85-2.26-.11.11-3.18-3-4.72Z" />
  <path id="montenegro" class="cls-1" d="M503.68,204.65v-.93l-1.32-1.86-2.14,3,.42,1.27,1.74.32Z" />
  <path id="serbia" class="cls-1"
    d="M504.33,191.94l-2.05,1.54h-1l-.68,2.12,2.42,2.81.16,2.23-.34.49,1.64,2.3v1.21l1.18,1.14,3.84-1.17-.32-5.46Z" />
  <path id="bulgaria" class="cls-1"
    d="M510.22,199.79l.16,5,1.68,3.5,6.31.11,2.84-2,2.79-1.11-.68-3.18.63-1.7-1.42-.74-1.95.16-1.53,1.54h-6.42l-2.41-1.6Z" />
  <path id="albania" class="cls-1"
    d="M502.8,207.16v4.61l1.32,2.49.95-.11,1.63-3-.95-1.33-.37-3.29-1.26-1.17-1.32,1.77Z" />
  <path id="macedonia" class="cls-1" d="M509.7,205.41l-3.37,1.11.16,2.86.79,1,4-1.86-1.58-3.12Z" />
  <path id="greece" class="cls-1"
    d="M505.49,215l-.11,1.33,4.63,2.33,2.21.85-1.16,1.22-2.58.26-.37,1.17.89,2,2.89,1.54,1.26.11.16-3.45,1.89-2.28L510,214l.68-2.07h1.21l1.84,1.48,1.16-.58.37-2.07,5.42.05.21-3.18-2.26,1.59L512,209l-4.31,2.23Z" />
  <path id="thrace" class="cls-1" d="M521.8,207.1l-.16,3.55,3.1-1,1.42-1-.42-1.54L524.27,206l-2.47,1.06Z" />
  <path id="crete" class="cls-1"
    d="M515.54,228h1.63l.68,1h2.37l1.58-.58.53.64-1.05,1.38-4.63.16-.84-1.11-.89-.53.62-1Z" />
</svg>